<?xml version="1.0" encoding="UTF-8"?>
<svg id="Layer_1" data-name="Layer 1" xmlns="http://www.w3.org/2000/svg" viewBox="0 0 281.02 195.26">
  <defs>
    <style>
      .cls-1 {
        fill: #fffcf4;
      }
    </style>
  </defs>
  <g id="hco0vR.tif">
    <g>
      <path class="cls-1" d="m237.93,37.6c2.24,0,4.49,0,6.73,0,2.92,0,5.84-.02,8.76-.03.25,0,.5,0,.75,0,1.73.09,2.8.96,3.07,2.68.28,1.74.72,3.48.61,5.25-.05.83.23,1.64.04,2.46,0,.03,0,.07,0,.09,1.2,1.83-.01,3.59-.2,5.37-.12,1.13-.55,2.23-.71,3.37-.21,1.44-.92,2.77-1.11,4.2-.3,2.31-.93,4.55-1.33,6.84-.39,2.22-.67,4.46-1.27,6.64-.06.22-.08.42-.08.64-.07,3.73-.27,7.46-.2,11.2.02,1.21.3,2.39.19,3.61-.05.58.44,1.06.56,1.65.31,1.57.65,3.14,1.13,4.66.3.96.7,1.92.9,2.89.27,1.25.91,2.35,1.13,3.6.23,1.34.84,2.59,1.12,3.93.51,2.47,1.45,4.81,2.12,7.24.49,1.79,1.21,3.51,1.69,5.31.43,1.64.8,3.3,1.32,4.91.75,2.32,1.39,4.68,2.1,7.01.52,1.74.94,3.5,1.46,5.22.31,1.04.47,2.16,1.04,3.14.23.39.25.89.35,1.35.18.9.33,1.79.67,2.67.48,1.25.71,2.61,1.03,3.92.05.21.05.42.15.63,1.03,2.03,1.3,4.29,1.99,6.43,1.03,3.2,1.75,6.49,2.66,9.72.93,3.32,1.91,6.63,2.88,9.94.55,1.88,1.09,3.76,1.62,5.64.31,1.11.43,2.26.64,3.39.54,2.86,1.52,5.66,1.23,8.64-.05.5-.04.99-.2,1.47-.29.86-.81,1.37-1.79,1.53-3.5.57-7.01.46-10.53.28-1.06-.05-2.11-.08-3.17.05-1.61.19-3.24.06-4.86.07-1.49,0-2.99.1-4.46-.32-.43-.13-.93-.05-1.4-.06-1.59-.02-3.18,0-4.77-.06-1.04-.03-1.59-.53-1.86-1.53-.59-2.2.44-3.89,2.59-4.63,2.08-.71,4.18-.9,6.35-.88,2.15.03,4.3-.01,6.45.02.66.01,1.14-.13,1.47-.73.39-.7.96-1.22,1.76-1.44.35-.1.53-.34.42-.71-.3-1.01-.16-2.04-.18-3.06,0-.44-.06-.83-.64-.8-2.81.17-5.6-.4-8.4-.16-2.52.21-5.04.1-7.57.16-1.25.03-2.45-.43-3.71-.38-2.61.09-5.23-.13-7.84.21-.99.13-1.98.01-2.97-.2-1.38-.29-2.8-.23-4.19-.11-2.04.17-4.08.25-6.12.31-.5.02-1,0-1.49-.12-1.23-.31-2.45-.29-3.71-.1-2.07.31-4.16.29-6.24.38-.9.04-1.81,0-2.71,0-.86,0-.84.02-.77.84.19,2.34.79,4.59,1.47,6.83.27.91.44,1.8.15,2.75-.11.37-.04.8-.04,1.21-.03,1.31-.5,1.84-1.76,2.11-1.16.25-2.29.36-3.5.14-1.15-.2-2.34-.04-3.53.07-1.39.12-2.79.24-4.19.25-3.55.02-7.11.13-10.66-.05-2.11-.11-4.2-.29-6.32-.14-.85.06-1.39-.38-1.72-1.16-.88-2.05.16-4.43,2.3-5.15.62-.21,1.24-.41,1.84-.69.49-.23,1.01-.28,1.55-.28,2.71.01,5.42,0,8.13.03.75.01,1.3-.16,1.73-.83.41-.64,1.05-1.06,1.78-1.3.49-.16.82-.36.36-.91-.27-.32-.25-.72-.07-1.06,1.13-2.07,1.19-4.43,1.82-6.63.94-3.25,1.9-6.5,2.88-9.75,1.05-3.51,1.93-7.07,2.81-10.63.64-2.56,1.29-5.12,1.9-7.69.53-2.21,1.16-4.39,1.78-6.58.71-2.5,1.29-5.03,1.94-7.55.49-1.91,1.09-3.78,1.48-5.71.04-.18.09-.37.18-.53.36-.65.42-1.36.59-2.07.34-1.43.71-2.86,1.36-4.19.16-.33.06-.67.15-1.01.52-1.96,1.03-3.93,1.56-5.89.79-2.96,1.59-5.92,2.38-8.89.27-1.01.72-1.98.96-2.98.36-1.51.93-2.94,1.27-4.44.33-1.45,1.19-2.62,2.04-3.77.68-.92,1.08-1.85.87-3.01-.26-1.42-.15-2.85-.08-4.28.02-.37.24-.62.47-.87,1.14-1.28,2.41-2.44,3.61-3.66.33-.33.66-.66.98-1,.26-.27.57-.57.43-.97-.16-.45-.62-.34-.98-.34-1.68-.01-3.35.18-5.02.36-1.31.14-2.6-.16-3.9-.22-2.27-.11-4.49-.56-6.7-1.04-2.21-.48-4.36-1.18-6.5-1.94-1.23-.43-2.14-1.34-3.25-1.95-.51-.28-.67-.68-.32-1.24.75-1.22,1.2-2.58,1.83-3.86,1.18-2.39,2.32-4.8,3.47-7.21,1.72-3.62,3.43-7.25,5.14-10.88.38-.81.82-1.58,1.28-2.35.29-.5.35-1.1.76-1.57.42-.49.57-.55,1.01-.08.32.34.61.7.88,1.07.65.88,1.43,1.61,2.3,2.29,1.15.89,2.03,2.09,3.18,3.01,1.04.84,1.92.74,2.82-.25.88-.97.87-1.95.49-3.1-.5-1.53-.56-3.05.05-4.63.71-1.85,1.28-3.75,1.82-5.66.3-1.08.65-2.12,1.21-3.1.46-.81,1.1-1.24,2.02-1.25,1.59-.01,3.18-.01,4.77-.02.75,0,1.5,0,2.24,0,0,0,0,0,0,0Zm14.22,133.56c3.55-.07,6.56-.24,9.59-.02,3.73.27,7.47-.22,11.21-.02.36.02.43-.14.41-.43-.02-.25.02-.51-.04-.74-.88-3.4-1.76-6.8-3.04-10.08-.49-1.26-.5-1.26-1.9-1.26-4.46,0-8.91,0-13.37,0-.85,0-1.68-.07-2.51-.23-.81-.16-1.6-.14-2.41-.03-2.95.38-5.9.36-8.85.12-.96-.08-1.9-.33-2.88-.18-2.82.42-5.65.33-8.48.29-.37,0-.75-.06-1.11-.15-1.08-.28-2.16-.22-3.24-.07-2.95.39-5.9.36-8.85.09-.93-.08-1.85-.28-2.79-.18-1.79.2-3.59.39-5.4.35-.89-.02-1.07.13-1.32,1-.37,1.32-.73,2.64-1.07,3.96-.51,2.01-1.05,4.03-1.49,6.06-.27,1.22-.1,1.35,1.13,1.41,2.15.1,4.3.08,6.44.12,4.61.07,9.22-.02,13.83,0,4.45.02,8.9-.07,13.36.02,1.59.03,3.17-.03,4.76.06,1.36.07,2.73-.21,4.1-.11,1.5.11,2.99.03,3.95.04Zm-13.58,2.99s0,0,0-.01c-11,0-22,0-33.01,0-.53,0-1.06.03-1.58.09-.55.06-.92.33-.94.96-.01.6.31.94.84,1.07.36.09.74.09,1.11.1,4.73.11,9.46-.11,14.19,0,1.62.04,3.24,0,4.86,0,1,0,1.99-.05,2.97-.26.86-.19,1.74-.2,2.6,0,2.01.45,4.03.23,6.05.19,1.95-.03,3.9.16,5.85-.11.09-.01.18.02.27.05.49.14.98.15,1.48.15,2.56,0,5.11-.01,7.67-.03.65,0,1.32,0,1.95-.11.75-.14,1.48-.09,2.23-.05,3.41.19,6.82.45,10.22-.13.12-.02.26-.02.36.03.68.33,1.41.24,2.12.25,1.99.02,3.98,0,5.97,0,.7,0,.95-.34.77-1.03-.17-.62-.49-1.06-1.22-1.09-.53-.02-1.06-.09-1.59-.09-4.61,0-9.22.01-13.84.01-6.45,0-12.9,0-19.35,0Zm-27.34-96.5c.3-.26.5-.56.66-.9,1.06-2.17,2.11-4.34,3.17-6.51.51-1.04,1.16-2.03,1.58-3.11,1.09-2.74,2.38-5.38,3.69-8.01.5-1,.57-1.24-.22-1.92-1.15-.99-2.29-1.97-3.29-3.12-.63-.73-1.2-.56-1.59.32-.04.08,0,.19-.04.28-.63,1.77-1.29,3.53-2.27,5.15-.29.48-.55.98-.7,1.51-.56,1.96-1.68,3.63-2.68,5.37-.34.59-.73,1.18-.93,1.82-.59,1.86-1.38,3.63-2.36,5.31-.26.44-.17.76.25,1.02.24.15.48.28.72.41,1.21.68,2.51,1.2,3.59,2.11.12.1.25.17.42.27Zm26.16,77.4c10.71,0,20.25-.05,29.78.04.16,0,.31,0,.47-.01.3-.02.57-.11.58-.47.01-.36-.07-.71-.47-.81-.3-.08-.62-.07-.93-.08-7.07-.12-14.14-.01-21.21-.13-5.05-.08-10.09.04-15.14.04-5.36,0-10.72-.02-16.07-.04-1.28,0-2.56-.02-3.83-.03-.44,0-.88.04-1.26.28-.28.18-.45.44-.36.79.09.33.36.4.66.4.37,0,.75.02,1.12.01,4.39-.04,8.79-.08,13.18-.05,4.89.04,9.78-.14,13.49.05Zm-21.87-78.04c-.02.51.2.79.65.93.36.11.75.16.86-.27.29-1.16,1.16-2.01,1.49-3.19.41-1.47.95-2.96,1.94-4.2.14-.18.23-.33.2-.57-.05-.38.11-.72.25-1.07.84-1.94,1.68-3.89,2.52-5.84.1-.23.21-.46.27-.69.1-.43-.11-.74-.5-.88-.38-.14-.58.15-.7.45-.2.48-.35.99-.54,1.48-1.05,2.65-2.72,5.01-3.68,7.71-.3.85-1.04,1.49-1.2,2.39-.15.89-.56,1.66-1.08,2.35-.35.47-.42.94-.49,1.42Zm-9.37,114.61c1.12,0,2.24,0,3.36,0,.09,0,.22-.03.25-.09.06-.1-.07-.14-.14-.18-.56-.28-1.09-.6-1.74-.61-2.21-.02-4.41-.02-6.59.53-1.64.42-3.31.35-4.96-.25-.96-.35-1.75-.93-2.57-1.48-.12-.08-.27-.23-.4-.09-.12.13,0,.3.08.42.39.52.7,1.11,1.17,1.57,1.21,1.18,2.58,1.71,4.25.99.31-.13.66-.19.99-.28,2.07-.57,4.2-.44,6.31-.53Zm67.34.02v-.03c.37,0,.75,0,1.12,0,1.06.01,2.12.03,3.18.04.23,0,.58.09.63-.23.04-.29-.29-.36-.51-.47-.31-.16-.64-.22-.99-.21-1.5,0-2.99-.02-4.49.02-.87.02-1.77,0-2.58.34-1.5.63-2.96.47-4.45.04-1.09-.32-2.11-.72-2.86-1.63-.09-.11-.24-.3-.38-.2-.19.14-.02.36.07.49.28.41.57.82.88,1.2,1.12,1.38,2.52,1.85,4.24,1.26.35-.12.72-.23,1.05-.39.35-.18.69-.24,1.08-.24,1.34.01,2.68,0,4.02,0Zm-68.34-10.28c-1.12,0-2.24-.09-3.36,0-.29.02-.59.09-.61.45-.02.31.15.54.43.66.41.17.85.23,1.28.15.65-.12,1.3-.1,1.95-.11,1.06,0,2.11.01,3.16.18.69.11,1.06-.27.94-.88-.11-.58-.56-.61-1.01-.57-.93.08-1.86.13-2.8.12Zm68.56-.05s0,0,0,0c-.81,0-1.62,0-2.43,0-.31,0-.62-.01-.93.02-.27.03-.62.06-.64.41-.02.38.3.52.62.57.4.07.8.14,1.2.15,1.74.02,3.49.02,5.23.03.12,0,.25-.01.37-.03.28-.04.46-.18.48-.48.02-.32-.13-.55-.45-.61-.3-.06-.62-.07-.93-.07-.84,0-1.68,0-2.52,0Zm-88.23,11.08c.87,0,1.74.01,2.61,0,.31,0,.68-.04.68-.46,0-.42-.36-.44-.68-.47-1.33-.1-2.66-.18-4-.14-.47.01-.92.12-1.36.27-.23.08-.48.23-.4.54.07.25.32.26.54.26.87,0,1.74,0,2.61,0Zm69.65-.32c.59.12,1.18.2,1.77.07.33-.07.59-.26.59-.62,0-.39-.32-.51-.64-.54-.4-.04-.8.03-1.21.05-.68.03-1.34.44-2.01.2-.82-.29-1.52-.09-2.24.26-.16.08-.44.08-.41.3.03.27.32.27.53.27,1.21.01,2.42,0,3.63,0Z"/>
      <path class="cls-1" d="m84.3,194.84c-4.71.09-9.41-.22-14.11-.15-1.09.02-1.68-.41-2.1-1.32-.76-1.64-.17-3.52,1.51-4.39,1.64-.85,3.36-1.46,5.27-1.41,2.55.07,5.11-.09,7.66.13.37.03.75-.01,1.12-.02.54,0,.95-.23,1.22-.72.44-.79.99-1.43,2-1.47.31-.01.46-.24.37-.52-.32-1.1-.11-2.23-.16-3.34-.04-.91-.11-1.07-.99-1.1-2.55-.08-5.11-.18-7.66.06-.95.09-1.85-.16-2.79-.16-4.11.03-8.23.01-12.34.01-9.66,0-19.32,0-28.98-.02-1.19,0-2.35.23-3.53.21-.4,0-.54.22-.55.59-.01.99.03,1.94.31,2.93.73,2.59,1.67,5.17,1.36,7.94-.03.28-.03.56-.09.83-.26,1.25-.77,1.69-2.05,1.71-1.71.03-3.43.05-5.14.06-7.26.01-14.52.02-21.78.02-.37,0-.75-.02-1.12-.01-.82.03-1.29-.41-1.5-1.14-.29-1.07-.31-2.16.05-3.22.23-.67.69-1.23,1.33-1.49,1.46-.6,2.92-1.19,4.58-1.14,2.58.08,5.17,0,7.76.03.96,0,1.67-.26,2.12-1.19.29-.6.85-1,1.55-1.06.64-.05.76-.43.53-.89-.34-.7-.19-1.33.1-1.97.47-1.03.75-2.08.78-3.24.04-1.29.66-2.45,1-3.68.9-3.3,1.89-6.58,2.77-9.88.93-3.5,1.94-6.98,2.8-10.5.36-1.48.94-2.9,1.27-4.39.36-1.63.85-3.22,1.27-4.83.42-1.61.9-3.21,1.21-4.84.41-2.15,1.25-4.17,1.73-6.29.5-2.21,1.27-4.34,1.82-6.53.41-1.63.8-3.26,1.28-4.86.72-2.41,1.27-4.86,2.05-7.26.51-1.59.74-3.28,1.27-4.88.61-1.85.96-3.76,1.62-5.6.38-1.07.45-2.24.88-3.31.67-1.68.95-3.5,1.8-5.12.55-1.04,1.06-2.12,1.89-2.96.57-.57.68-1.2.49-1.87-.43-1.53-.3-3.08-.26-4.63.02-.67.45-1.14.88-1.58,1.2-1.23,2.42-2.42,3.63-3.63.24-.24.51-.47.71-.74.32-.44.14-.83-.4-.94-.7-.15-1.41-.09-2.1.01-1.62.23-3.23.11-4.85.14-2.15.04-4.25-.34-6.36-.67-1.59-.25-3.17-.55-4.71-.99-1.72-.49-3.39-1.17-5-1.97-.72-.36-1.42-.77-2.13-1.15-.83-.44-1.07-1.1-.73-1.99.06-.14.11-.29.19-.43,1.24-2.06,1.96-4.37,3.07-6.5,1.48-2.83,2.82-5.74,4.18-8.63.52-1.1,1.23-2.14,1.67-3.24.6-1.5,1.34-2.93,1.96-4.42.25-.6.55-1.19.85-1.76.37-.69.71-.73,1.3-.2.62.56,1.22,1.14,1.78,1.76,1.43,1.61,3.12,2.94,4.66,4.44,1.09,1.06,1.45.85,2.36-.02.22-.22.43-.45.65-.67.57-.56.72-1.18.45-1.95-.63-1.78-.67-3.58-.08-5.4.86-2.67,1.49-5.4,2.57-8,.52-1.26,1.32-1.95,2.82-1.94,7.54.06,15.08.03,22.63.02.9,0,1.69.31,2.46.74.49.28.61.77.77,1.22.63,1.73.69,3.57.94,5.37.17,1.19.19,2.39.56,3.56.19.59.04,1.36-.14,1.99-.14.51-.23,1.02-.32,1.54-.54,3.28-1.47,6.47-2.22,9.7-.75,3.21-1.33,6.45-1.94,9.69-1.06,5.63-1.16,11.31-.79,17.01.11,1.6.54,3.17,1,4.71.28.95.5,1.92.75,2.87.27,1.02.65,2.02.96,3.04.66,2.18,1.4,4.32,2.01,6.52.96,3.45,1.92,6.91,2.97,10.34.64,2.09,1.2,4.2,1.76,6.3.47,1.77.87,3.56,1.61,5.25.28.63.42,1.35.61,2.03.6,2.08,1.22,4.16,1.83,6.23.46,1.56.93,3.14,1.28,4.74.45,2.04,1.1,4.02,1.57,6.05.43,1.9,1.18,3.72,1.68,5.6.9,3.33,1.96,6.61,2.77,9.97.74,3.05,1.57,6.08,2.51,9.07.91,2.88,1.88,5.75,2.52,8.69.85,3.94,2.13,7.82,1.99,11.92-.03.8.02,1.6-.49,2.32-.32.45-.69.7-1.23.71-1.28.03-2.55.06-3.83.07-3.08.03-6.17.04-9.25.06-.65,0-1.31,0-1.96,0Zm7.47-23.88c.44,0,.87.02,1.31,0,.67-.04.74-.16.56-.82-.41-1.5-.76-3.01-1.22-4.5-.67-2.17-1.17-4.39-2.08-6.48-.29-.66-.67-.92-1.41-.94-3.14-.08-6.28.09-9.42.03-8.13-.14-16.27-.08-24.4-.03-2.71.02-5.42-.2-8.13-.13-5.64.14-11.28.17-16.92-.02-.62-.02-1.25-.04-1.87-.03-.63.01-1,.32-1.18.97-.71,2.58-1.33,5.18-2.09,7.74-.3,1.01-.48,2.06-.66,3.1-.14.82.04,1,.85,1.07.34.03.69.06,1.03.04,4.7-.24,9.4.26,14.1-.02,2.11-.13,4.24.07,6.35.02,4.71-.12,9.41.08,14.11-.02,2.3-.05,4.61.06,6.91.05,2.27,0,4.55-.06,6.82-.07.96,0,1.92,0,2.87.29.4.12.87.09,1.3.03,2.97-.43,5.93-.51,8.9,0,.33.06.7.07,1.02,0,1.07-.25,2.16-.26,3.24-.3ZM26.26,73.93c-.03.52.21.77.57.95,1.25.62,2.49,1.24,3.66,2.01.64.42.98.31,1.32-.41.75-1.61,1.67-3.14,2.39-4.78.79-1.79,1.66-3.54,2.5-5.3,1.24-2.61,2.47-5.22,3.72-7.82.25-.52.4-1.01-.07-1.45-1.25-1.17-2.5-2.33-3.77-3.47-.5-.45-.84-.38-1.07.26-.7,1.96-1.76,3.75-2.57,5.67-1.21,2.89-2.63,5.7-4.02,8.52-.84,1.69-1.68,3.38-2.48,5.09-.12.26-.16.54-.17.73Zm4.66,100.12c-2.63-.12-4.84.09-7.05.06-.71,0-1.1.47-1.12,1.28-.02.82.61.56,1,.55,3.74-.02,7.47-.09,11.21-.1,9.87-.01,19.75-.04,29.62.07,2.89.03,5.78-.02,8.68.14,1.9.11,3.85-.04,5.78-.12,1.46-.06,2.94-.14,4.37.19.65.15,1.29.29,1.93.2,1.05-.14,2.08-.28,3.13,0,.19.05.44-.01.64-.08,1.29-.42,2.58-.34,3.87-.03.36.09.73.17,1.11.15.26-.01.49-.07.61-.34.34-.76-.37-1.89-1.22-1.91-.93-.02-1.87-.02-2.8-.02-16.45,0-32.9.04-49.35-.15-.93-.01-1.88-.13-2.8-.02-2.68.29-5.35.12-7.61.12Zm22.94-19.19c7.67,0,15.34,0,23,0,.59,0,1.19,0,1.77.08.75.09,1.49.11,2.24,0,.84-.11,1.69-.18,2.52-.04,1.44.25,2.86-.05,4.29-.06.24,0,.55.04.63-.27.07-.27-.14-.46-.32-.63-.26-.25-.58-.37-.93-.39-.47-.03-.93-.07-1.4-.05-4.8.19-9.59-.1-14.39-.12-1.49,0-2.98.18-4.46.15-4.02-.08-8.03,0-12.05-.13-4.48-.15-8.97-.03-13.46-.03-3.4,0-6.79,0-10.19,0-.76,0-1.5.07-2.15.5-.18.12-.39.25-.32.51.06.23.23.39.47.41.4.04.81.06,1.21.06,7.85,0,15.71,0,23.56,0Zm-10.16-93.07c-.04-.46-.08-.87-.53-.96-.44-.08-.43.38-.57.62-1.18,2.15-2.09,4.43-3.24,6.6-1.35,2.54-2.32,5.25-3.65,7.8-.16.3-.31.6-.29.97.03.42.2.72.61.83.42.12.8.06,1.02-.4.38-.78.84-1.53,1.15-2.34.89-2.32,1.98-4.56,2.93-6.85.8-1.91,1.57-3.83,2.42-5.72.09-.19.11-.42.15-.55Zm51.07,129.84c.93-.13,1.86-.2,2.8-.04.32.06.88.27.93-.21.04-.41-.5-.56-.91-.61-.18-.02-.37-.02-.56-.02-1.81,0-3.61,0-5.42,0-.72,0-1.43.11-2.13.24-2.69.51-5.19.3-7.16-1.89-.09-.1-.19-.3-.36-.13-.09.09-.02.24.04.35.51.79,1.18,1.43,1.81,2.12,1.03,1.12,2.26,1.15,3.6.82.34-.08.65-.21.97-.34.38-.14.75-.3,1.17-.29,1.74,0,3.48,0,5.23,0Zm-69.7-.12c1.29-.15,2.7.19,4.09-.07.2-.04.52.12.57-.14.06-.3-.29-.34-.51-.44-.29-.13-.61-.12-.92-.12-.75,0-1.5,0-2.24,0-2.15,0-4.27.15-6.41.45-2.32.32-4.62,0-6.19-2.13-.07-.09-.17-.23-.29-.13-.12.09-.02.23.03.33.61,1.19,1.53,2.12,2.6,2.88.73.52,1.53.64,2.39.25,1.92-.89,3.97-.93,6.04-.88.25,0,.5,0,.85,0Zm-.08-9.03c1,0,1.99,0,2.99,0,.43,0,.72-.13.72-.64,0-.45-.24-.61-.64-.62-1.96-.08-3.92-.3-5.88-.16-.52.04-1.23,0-1.22.7,0,.66.7.7,1.23.71.93.03,1.87,0,2.8,0Zm68.35-1.45s0,.02,0,.03c-.37,0-.74,0-1.12,0-.56,0-1.12-.03-1.67-.01-.35,0-.6.18-.61.56-.01.35.16.6.51.68.21.05.43.04.65.06,1.73.18,3.47.12,5.2.14.22,0,.43,0,.65-.01.3-.02.55-.13.6-.47.05-.35-.09-.62-.42-.73-.47-.16-.96-.24-1.46-.24-.77,0-1.55,0-2.32,0Zm-18.9,11.18c.75,0,1.49,0,2.24,0,.41,0,.78-.09.81-.57.04-.51-.29-.64-.76-.73-1.49-.27-2.96.13-4.44.04-.34-.02-.67.12-.95.34-.16.13-.44.23-.4.47.04.26.33.24.53.29.98.26,1.98.12,2.97.15Zm-69.15-.04s0,.03,0,.04c.68,0,1.37,0,2.05,0,.25,0,.5,0,.74-.05.27-.06.57-.16.57-.51,0-.32-.22-.51-.51-.58-.27-.06-.55-.11-.82-.12-.74-.02-1.49.02-2.23-.04-.94-.07-1.78.18-2.59.59-.16.08-.4.12-.39.34.01.28.29.31.49.32.9.02,1.8,0,2.7,0Z"/>
      <path class="cls-1" d="m114.26,24.16c.53,0,1.06.04,1.59-.01.41-.04.7.12,1.04.3,1.33.69,2.41,1.74,3.67,2.51,1.03.63,2.41.86,3.69-.3.32-.29.76-.51.8-1.06.04-.61-.13-1.05-.62-1.45-.91-.76-2.03-1.19-2.97-1.89-.83-.62-1.9-.66-2.72-1.28-.1-.08-.35-.1-.45-.03-.69.47-1.51.32-2.26.41-1.37.18-2.59-.33-3.63-1.23-.23-.2-.32-.48-.23-.76.14-.44.23-.95.51-1.28.54-.63.29-1.13-.05-1.68-.15-.24-.35-.43-.59-.58-1.08-.65-1.74-1.56-1.8-2.86-.02-.45-.71-.8-.39-1.25.27-.37.9-.05,1.32-.3.15-.09.38-.04.54-.12,1.07-.54,2.17-.62,3.31-.27,1.41.42,2.71.1,3.91-.63.62-.38,1.11-.33,1.74-.08,1.36.54,2.57,1.29,3.67,2.27.58.52,1.03.38,1.3-.26.44-1.05,1.21-1.26,2.15-.51.55.44,1.08.93,1.57,1.44,1.06,1.1,1.94,2.33,2.65,3.7.54,1.04.83,2.13.71,3.31-.03.37-.01.75,0,1.12.02.7.46,1.33,1.14,1.35,1.19.05,2.43.15,3.35-.92.29-.34.47-.7.6-1.13.51-1.73,1-3.47,1.52-5.2.29-.96.5-1.97.67-2.97.27-1.63-.52-2.95-1.51-4.15-.31-.37-.54-.76-.66-1.21-.17-.64.05-.95.72-1,1.97-.13,3.85.22,5.44,1.41.64.48,1.26,1.14,1.57,1.92.46,1.13,1.45,1.73,2.32,2.43.76.62,1.64,1.07,2.49,1.58.78.47,1.31,1.31,2.04,1.89,1.34,1.06,2.91,1.33,4.58,1.17.46-.04.62-.31.55-.78-.12-.8-.42-1.55-.67-2.31-.28-.86-.28-1.7.02-2.55.48-1.33.94-2.66,1.99-3.71.52-.52,1.17-.68,1.77-.96,3.12-1.41,6.01,1.11,6.53,3.48.18.83.59,1.59.54,2.51-.06,1.07-.34,2-.89,2.89-.21.34-.41.69-.46,1.11-.17,1.52,1.42,2.68,2.87,2.11.63-.24.83-.69.83-1.3,0-1.09.03-2.18.03-3.27,0-1.15.6-1.92,1.53-2.48.37-.22.77-.4,1.16-.59,1.69-.82,3.2-.27,4.65.63.15.09.26.27.34.43.85,1.66.98,3.28-.2,4.86-.51.69-1.04,1.35-.9,2.34.07.5.23.8.67.99.5.22,1.04.17,1.56.25.45.07.95.13,1.06.72.1.55-.1.96-.55,1.29-.36.26-.72.5-1.17.53-2.1.13-4.17.02-6-1.18-.69-.45-1.31-.38-2,.02-.86.5-1.79,1-2.81.75-1.01-.25-2.02-.55-2.91-1.14-1.61-1.06-3.3-1.77-5.3-1.62-1.49.11-3.02.21-4.48-.05-2.93-.52-5.92-1.07-7.85-3.75-.86-1.19-2.15-1.87-3.33-2.68-.34-.24-.58-.09-.76.23-.28.49-.38,1.05-.55,1.58-.47,1.48-.58,3.07-1.33,4.46-.59,1.09-1.17,2.2-1.91,3.2-.4.54-.58,1.16-.83,1.76-.19.45-.16.99.25,1.28.45.32.95.15,1.39-.17.31-.23.49-.56.67-.89.72-1.3,1.78-2.21,3.14-2.81,1.08-.48,2.18-.93,3.18-1.58.63-.41,1.02-.29,1.35.38.21.42.33.87.51,1.3.42.97,1.01,1.17,1.93.63,1.16-.68,2.32-1.34,3.56-1.84.26-.1.52-.21.79-.26.52-.11.91.03,1.03.62.05.24.17.47.26.7.26.7.74,1.01,1.51.94,1.13-.1,2.23.08,3.27.57.93.45.96.63.23,1.37-.7.71-.69,1.03,0,1.7.18.18.33.2.57.17.86-.09,1.64.12,2.37.59.18.12.44.19.38.45-.04.19-.25.28-.43.32-.97.23-1.84.76-2.82.95-.43.08-.83.26-1.22.46-.43.22-.5.52-.29.92.1.19.25.36.35.55.3.59.2.89-.43,1.02-1.21.24-1.92.94-2.17,2.13-.08.38-.27.68-.55.95-.62.6-.66.59-1.25-.09-.41-.46-.88-.86-1.37-1.24-.44-.35-.71-.28-.98.16-.21.34-.41.69-.64,1.02-.29.39-.66.53-1.11.22-.3-.21-.62-.38-.91-.62-1.62-1.37-3.3-2.66-5.09-3.78-.4-.25-.88-.31-1.33-.35-.61-.06-1.04.33-1.18.95-.1.45-.21.91-.31,1.36-.24,1.07.12,1.97,1.09,2.53,1,.58,2.04,1.03,3.18,1.29,1.52.35,2.97.88,4.17,1.95.56.5.56.59-.09.94-.11.06-.23.11-.33.18-.87.59-.85.85,0,1.47.63.46,1.39.7,2.03,1.15.29.2.55.41.66.75.18.55-.12,1-.69,1.06-.15.01-.31,0-.47-.02-1.41-.12-2.15.87-1.64,2.23.21.56.51,1.06,1.04,1.4.18.12.34.27.49.43.18.21.42.47.33.74-.11.36-.48.18-.74.18-.72.03-1.43.06-2.15.05-.55,0-.71.27-.64.77.04.28.06.56.04.84-.06.81-.47,1.1-1.26.93-.7-.15-1.25-.55-1.72-1.07-.5-.55-1-1.11-1.47-1.69-.44-.53-1-.61-1.6-.48-.58.13-.58.65-.67,1.11-.04.21-.11.42-.19.62-.21.5-.57.65-1.05.38-1.48-.82-2.89-2.3-2.7-4.31.17-1.8.24-3.6.65-5.36.32-1.39-.75-3.67-2.02-4.3-.61-.3-1.3-.14-1.74.46-.32.43-.5.93-.59,1.46-.2,1.27-.18,2.52,0,3.8.28,2.12.51,4.26.43,6.41-.02.47-.11.92-.31,1.35-.18.4-.46.66-.88.75-.15.03-.3.07-.46.1-1.47.3-2.5,1.09-2.86,2.59-.28,1.14-.8,2.07-1.88,2.65-.3.16-.5.45-.61.8-.16.51-.55.63-.95.32-.84-.64-1.71-.64-2.65-.32-.37.13-.69,0-.86-.36-.4-.9-1.21-1.4-1.96-1.96-.48-.36-.93-.74-1.26-1.24-.44-.66-.63-1.4-.24-2.12.58-1.08.48-2.14.14-3.25-.25-.83-.46-1.72-.07-2.56.41-.89.84-1.79,1.46-2.55.83-1.02,1.83-1.84,2.99-2.49.97-.54,1.87-1.21,2.77-1.86.57-.41.55-.78.09-1.33-.45-.54-1.02-.74-1.71-.81-1.81-.18-3.35.55-4.83,1.42-2.12,1.25-4.28,1.35-6.52.42-.65-.27-1.34-.27-2.01-.31-.74-.04-1.23-.38-1.61-.95-.63-.95-1.45-1.67-2.54-2.07-.36-.13-.71-.2-1.08-.2-1.2,0-1.22,0-1.61-1.22-.17-.52-.4-1.06-.89-1.25-.5-.19-.97-.55-1.55-.52-.29.01-.58-.03-.69-.35-.13-.37.11-.63.39-.76,1.3-.57,2.03-1.7,2.77-2.8.51-.76,1.41-.84,2.11-1.28.41-.26.9-.4,1.39-.5.7-.15,1.34-.38,1.77-1.07.3-.48.92-.45,1.44-.49.59-.05,1.18-.01,1.78-.01,0,.01,0,.03,0,.04Zm50.61-11.29c0-.54,0-.91,0-1.29-.02-.8-.29-1.52-.77-2.16-.81-1.07-1.47-1.1-2.29-.05-1.01,1.28-1.24,2.78-.97,4.32.16.92.41,1.89,1.38,2.43.81.45,1.29.37,1.86-.34.72-.91.9-1.96.8-2.91Zm8.59,2.06c-.01.47.02.93.31,1.33.32.43.86.45,1.2.08.47-.54.48-2.08.02-2.63-.55-.64-1.08-.55-1.38.22-.12.32-.15.66-.15,1Z"/>
      <path class="cls-1" d="m220.58,30c3.8,0,7.6,0,11.4,0,.23,0,.56.13.63-.2.05-.24-.22-.35-.41-.45-.53-.28-.9-.77-1.38-1.11-.68-.49-1.06-.57-1.69-.04-1.74,1.48-3.79,1.21-5.79,1.07-.72-.05-1.33-.55-1.65-1.33-.31-.77-.33-1.58-.51-2.36-.09-.39.12-.65.43-.85,1.07-.7,1.75-1.71,2.23-2.86.22-.52.57-.7,1.11-.45.16.07.4.17.48-.06.07-.2-.16-.37-.31-.39-1.12-.2-1.27-1.08-1.32-1.95-.03-.51-.28-.8-.68-.86-1.98-.28-2.37-1.68-2.48-3.34-.11-1.6,0-3.17.36-4.73.08-.33.3-.53.5-.77q.56-.64-.13-1.21c-.12-.1-.25-.18-.37-.29-.78-.7-1.05-1.55-.49-2.76.88-1.91,2.38-3.01,4.45-3.43,1.02-.21,2.03-.54,3-.97,1.16-.52,2.47-.6,3.56.19,1.43,1.04,3,1.19,4.67,1.22,1.35.03,2.68.42,3.95.91.61.24,1.21.5,1.78.81.62.34,1.01.85.82,1.61-.16.66.17.98.74,1.19,1.75.65,2.6,2.2,3.56,3.62.26.39.14.9-.02,1.36-.29.82.04,1.51.63,2.01.89.76,1.68,1.51,1.83,2.78.05.46.38.91.66,1.33.44.66.54,1.44.85,2.14.36.79-.41,1.76-1.35,1.83-.68.05-1.37.03-2.06,0-.52-.02-.82.11-.82.71,0,1.07-.43,1.96-1.14,2.78-.92,1.05-.96,1.34-.13,2.23.18.19.29.48.36.75.16.66-.11,1.08-.79,1.21-1.17.23-2.21-.03-3.13-.81-.8-.67-.81-.65-1.6.04-.75.65-1.6.96-2.59.62-.72-.24-1.46-.32-2.21-.12-.27.07-.61.17-.6.49,0,.37.39.35.65.39.4.06.81.08,1.21.08,6.76.02,13.52.06,20.29-.09,2.17-.05,4.36.12,6.54.09,1.56-.03,3.12-.07,4.67-.09,1.96-.02,3.92.22,5.88.13.29-.01.55.07.82.16.84.28.96.64.43,1.34-1,1.31-1.91,2.68-3.07,3.86-.78.8-1.6,1.3-2.78,1.19-.86-.08-1.75.08-2.57-.31-.13-.06-.3-.07-.46-.07-2.55.04-5.11-.09-7.66.14-3.2.29-6.42.48-9.61.18-1.83-.17-3.59.18-5.39.1-2.08-.1-4.17.02-6.26.03-.9,0-1.81,0-2.69-.22-.4-.1-.81-.13-1.21-.03-1.32.32-2.66.22-4,.21-5.08-.07-10.16.01-15.24.11-1,.02-1.99-.02-2.99-.03-.6,0-1.01-.2-1.31-.81-.68-1.36-1.26-2.75-1.74-4.19-.06-.17-.12-.35-.14-.53-.12-.94.02-1.11.96-1.11,3.77,0,7.54,0,11.31,0,0-.02,0-.05,0-.07Z"/>
      <path class="cls-1" d="m81.18,36.24c-3.35,0-6.16-.02-8.96,0-1.34.01-2.67-.21-4.01-.21-1.43,0-2.85.3-4.28.2-5.07-.35-10.15-.12-15.22-.16-2.01-.02-4.03.11-6.04.12-3.52.02-7.04.01-10.55.01-1.64,0-1.66-.08-2.18-1.44-.5-1.33-1.09-2.64-1.55-3.99-.28-.81-.18-1.03.69-1.05,1.59-.04,3.18-.05,4.77-.03,1.68.03,3.36.09,5.03-.11.06,0,.13-.03.18-.01,1.51.7,3.07-.04,4.61.17,1.54.2,3.1.11,4.66-.01,1.33-.1,2.68,0,4.02,0,.17,0,.41.14.49-.11.06-.2-.13-.34-.27-.45-.69-.53-1.38-1.06-2.09-1.56-.29-.21-.58-.09-.87.07-.95.52-1.87,1.1-2.94,1.38-.37.09-.72.16-1.1.1-.74-.13-1.48-.24-2.21-.37-1.15-.21-1.83-1.02-1.88-2.18,0-.25-.01-.5-.04-.75-.11-.91.13-1.55,1.11-1.84.69-.2,1-.84,1.11-1.5.12-.67.26-1.27.92-1.61.3-.15.18-.33.06-.53-.26-.43-.39-.87-.37-1.4.04-.84-.21-1.07-1.04-1.27-.69-.17-1.36-.35-1.89-.9-.33-.34-.52-.74-.52-1.16-.02-1.39-.06-2.78.05-4.16.07-.9.42-1.66.96-2.37.67-.88.63-1.09-.28-1.66-.9-.57-1.01-1.16-.93-2.18.13-1.54,1.33-2.18,2.29-2.95.99-.79,2.2-1.24,3.53-1.26.65-.01,1.27-.22,1.81-.66.45-.36,1.03-.46,1.59-.38.78.12,1.57.18,2.29.65.99.65,2.11.96,3.34,1.01,2.49.11,4.81.86,7.02,2.01.72.38.75.96.57,1.58-.12.44.03.74.37.81,1.63.36,2.34,1.76,3.34,2.84.34.37.58.8.73,1.29.14.45.18.85-.16,1.22-.34.37-.21.74,0,1.11.43.75,1.02,1.36,1.73,1.8.55.34.78.79.76,1.38-.03.82.3,1.5.69,2.18.38.66.62,1.41.79,2.15.17.72-.4,1.35-1.33,1.5-.6.1-1.23.14-1.84-.03-.78-.22-.98-.1-1.11.73-.17,1.04-.6,1.93-1.33,2.7-.66.7-.68,1.32-.04,2.06.32.38.52.76.46,1.26-.09.83-.63,1.28-1.46,1.2-.89-.09-1.66-.41-2.38-.95-1-.76-1.11-.74-2.07.06-.52.44-1.08.58-1.73.39-.85-.26-1.73-.19-2.6-.18-.37,0-.85,0-.84.51.01.48.49.49.86.52,1.58.14,3.17.23,4.75-.02.75-.12,1.49-.11,2.23.04.9.18,1.8.21,2.69,0,.75-.18,1.48.01,2.22.04,1.74.05,3.49.05,5.23.05,6.61,0,13.21,0,19.82,0,.94,0,1.87.08,2.8.17.65.06.89.5.49,1.03-1.11,1.49-2.18,3.03-3.52,4.33-.39.38-.85.58-1.41.66-1.27.19-2.56.17-3.83.14-2.24-.05-4.49.03-6.18-.02Z"/>
      <path class="cls-1" d="m198.54,72.32c.2-.73.19-1.73.91-2.54.36-.4.46-1,.61-1.55.21-.78.27-1.68.76-2.3.44-.56.72-1.15.98-1.78.98-2.33,1.98-4.65,2.82-7.04.44-1.25,1.08-2.42,1.61-3.63.4-.91.49-1.85.12-2.81-.2-.52-.35-1.07-.32-1.63.05-.98-.37-1.71-1.04-2.38-.93-.92-1.95-1.73-3.01-2.48-.3-.21-.56-.5-.81-.76-.22-.23-.29-.45-.13-.82.35-.83.15-1.43-.72-1.7-1.49-.46-1.96-1.69-2.51-2.9-.24-.53-.4-1.11-.81-1.55-.58-.63-.76-1.36-.73-2.21.05-1.37-.24-1.7-1.59-2.04-.36-.09-.73-.14-1.08-.23-.5-.12-.96-.33-1.04-.91-.09-.63-.05-1.26.54-1.68.35-.25.73-.45,1.1-.68.74-.46,1.58-.72,2.38-1,.81-.28,1.68-.43,2.61-.13.94.3,1.98.11,2.97.11.51,0,1,.05,1.42.37.12.09.35.2.34.29-.07.82.64,1.01,1.11,1.35.68.49,1.11,1.17,1.51,1.86.69,1.18,1.4,2.33,2.26,3.4.75.94.99,2.14.54,3.33-.23.6-.11.91.48,1.02.74.14,1.02.6,1.1,1.3.14,1.25.65,2.41,1.01,3.61.32,1.06.9,1.98,1.8,2.66.62.46.73,1.04.48,1.73-.09.23-.17.47-.28.69-1.49,2.77-2.84,5.61-4.11,8.47-1.54,3.47-3.41,6.78-4.87,10.29-.83,2-1.86,3.93-3.01,5.78-.34.54-.56,1.35-1.46,1.19-1.09-.19-1.9-1.1-1.94-2.09,0-.12,0-.25,0-.6Z"/>
      <path class="cls-1" d="m18.58,27.3c1.51-.17,2.86.27,4.23.16.31-.02.51.1.66.39.22.42.58.75.96,1.01,1.5,1,2.46,2.44,3.31,3.97.31.55.63,1.07,1.04,1.54.71.8.98,1.71.74,2.76-.05.21-.07.43-.1.65-.12.9-.08,1.03.81,1.22.56.12.69.39.72.89.09,2.22.81,4.24,2.05,6.08.21.32.48.57.77.8.48.39.54.84.34,1.42-.56,1.56-1.36,3-2.06,4.49-1.11,2.37-2.16,4.77-3.41,7.06-1.55,2.84-2.77,5.84-4.25,8.71-.88,1.71-1.56,3.52-2.6,5.16-.8,1.25-1.23,1.52-2.62.25-.67-.61-.91-1.37-.5-2.26.51-1.12.92-2.29,1.39-3.43.38-.91.68-1.85,1.06-2.76.85-2.06,1.75-4.09,2.64-6.13.91-2.09,1.7-4.24,2.57-6.35.11-.27.13-.54.13-.82.01-1.3-.01-2.63-.38-3.87-.33-1.09-.89-2.14-1.82-2.89-.82-.65-1.57-1.4-2.51-1.9-.43-.23-.58-.63-.52-1.11.12-1.02-.35-1.68-1.16-2.25-.97-.68-1.81-1.55-2.13-2.71-.27-.95-1.08-1.59-1.24-2.57-.12-.72-.5-1.37-.5-2.13,0-.69-.46-1.04-1.24-1.13-.8-.09-1.45-.48-2.09-.93-.45-.31-.41-.64-.15-1.03.1-.15.23-.3.38-.4,1.7-1.15,3.38-2.36,5.48-1.91Z"/>
      <path class="cls-1" d="m175.02,63.74c0,2.64-1.09,4.73-3.25,6.26-1.47,1.04-3.05,1.69-4.87,1.98-2.4.39-4.67.15-6.82-.83-2.41-1.11-4.08-2.94-4.95-5.53-1.16-3.43.86-7.82,4.2-9.44,3.73-1.8,7.49-1.88,11.19.17,2.09,1.16,3.39,2.97,4.22,5.16.27.72.27,1.46.28,2.22Z"/>
      <path class="cls-1" d="m169.22,79.26c-.08,1.12-.52,2.27-1.73,2.99-1.37.82-2.61,1.81-3.74,2.93-.95.94-2.18,1.14-3.37,1.47-.28.08-.55-.06-.8-.18-.79-.37-1.58-.73-2.37-1.09-1.33-.61-2.74-.81-4.19-.71-.94.07-1.79-.08-2.46-.83-.45-.51-.8-1.07-.8-1.74,0-1.63-.45-3.14-1.16-4.57-.35-.72-.3-1.37.03-2.05.57-1.21,1.45-2.19,2.48-2.99,1.11-.86,2.4-1.44,3.72-1.92.77-.28,1.5-.24,2.19.3,1.55,1.21,3.38,1.88,5.25,2.34,1.35.33,2.76.37,4.16.37,1.23,0,1.84.52,2.01,1.72.13.9.27,1.78.63,2.62.15.35.16.73.14,1.32Z"/>
      <path class="cls-1" d="m134.19,65.31c-.22-4.12,3.41-8.35,8.21-8.4,2.02-.02,3.87.37,5.59,1.48,1.37.88,2.29,2.08,2.96,3.51.3.65.53,1.33.76,2,.3.91-.05,1.8-.21,2.66-.57,3.08-2.24,5.27-5.39,6.12-.48.13-.95.3-1.43.44-.4.11-.82.17-1.19-.03-1-.53-2.09-.61-3.18-.57-1.77.07-3.01-.92-4.12-2.07-1.37-1.42-2.06-3.16-2-5.16Z"/>
      <path class="cls-1" d="m104.1,54.91c-2.74.13-4.79-1.28-6.57-3.12-1.26-1.3-1.67-3.01-1.86-4.76-.31-2.89,1.19-4.91,3.27-6.61,1.54-1.26,3.47-1.7,5.32-1.69,3.56.02,6.79,1.69,8.43,5.16.56,1.19.81,2.53.51,3.89-.17.77-.71,1.26-1.37,1.53-1.93.81-3.04,2.44-4.05,4.09-.66,1.09-1.48,1.49-2.65,1.5-.34,0-.68,0-1.03,0Z"/>
      <path class="cls-1" d="m148.39,81.84c-.22,2.55-1.2,4.63-3,6.33-.46.43-.97.41-1.47.16-1.32-.67-2.73-.77-4.18-.73-1.07.03-2.07.24-3.07.62-1.97.76-2.26.96-4.04-1.08-1.02-1.16-1.52-2.57-1.88-4.01-.2-.78-.11-1.63.07-2.44.48-2.11,1.56-3.85,3.24-5.2.68-.55,1.51-.89,2.33-1.11.83-.22,1.65-.5,2.51-.68.62-.13,1.17-.05,1.73.05,2.94.52,5.29,1.94,6.78,4.58.62,1.1.8,2.34.97,3.49Z"/>
      <path class="cls-1" d="m139.43,110.19c.1-1.29.32-2.4.92-3.45.33-.58.62-1.17,1.03-1.72,1.5-2.02,3.66-2.82,6-2.93,2.4-.11,4.59.8,6.38,2.43.71.65,1.06,1.6,1.19,2.58.11.84.28,1.65.75,2.38.25.4.36.87.28,1.34-.27,1.8-.93,3.41-2.34,4.65-.62.54-1.27.7-2.13.6-2.15-.26-4.33-.51-6.33.68-1,.6-1.81.2-2.47-.53-.47-.53-1-1-1.49-1.5-1.28-1.32-1.57-2.96-1.79-4.54Z"/>
      <path class="cls-1" d="m112.93,81.63c-1.77.08-3.47-.22-4.91-1.33-1.01-.78-1.83-1.72-2.56-2.79-.87-1.27-1.18-2.66-1.16-4.12.02-1.37.43-2.67,1.28-3.8.77-1.02,1.51-2.05,2.6-2.77.21-.14.39-.27.64-.33.6-.16,1.2-.35,1.77-.59,2.2-.91,4.33-.59,6.43.34.54.24.83.64.68,1.27-.04.18-.05.38-.12.55-.75,1.83-.16,3.62.2,5.41.15.74.56,1.38,1,1.99.92,1.25.79,1.83-.29,2.56-.64.44-.87,1.2-1.37,1.76-.27.3-.5.64-.75.95-.5.62-1.12.97-1.94.91-.5-.03-1,0-1.49,0Z"/>
      <path class="cls-1" d="m170.99,82.89c4.46.18,7.8,2.83,8.15,7.55.21,2.86-2.31,5.57-4.52,6.52-1.01.43-2.08.65-3.13.89-1.36.32-2.57-.34-3.72-.91-2.38-1.18-3.81-3.13-4.33-5.74-.12-.62-.04-1.24.1-1.85.38-1.67,1.16-3.16,2.33-4.4,1.48-1.58,3.46-1.96,5.13-2.07Z"/>
      <path class="cls-1" d="m118.66,70.7c-.12-5.77,5.7-9.99,11.23-8.03.62.22,1.26.37,1.84.68.63.33,1.03.81.97,1.56-.15,2.24.83,4.09,2.02,5.87.12.18.26.35.39.53.91,1.23.83,1.69-.52,2.39-1.07.54-2.01,1.2-2.76,2.16-.81,1.02-1.5,1.1-2.61.45-.63-.37-1.32-.5-2.02-.68-1.75-.45-3.46-.07-5.18.11-.85.09-1.47-.14-1.96-.79-.99-1.31-1.58-2.75-1.41-4.25Z"/>
      <path class="cls-1" d="m153.43,101c-1.41.32-2.47-.41-3.63-1.03-2.46-1.3-3.33-3.53-3.56-6.02-.21-2.29.75-4.23,2.55-5.72,2.01-1.67,4.36-2.24,6.88-1.9,1.28.18,2.38.97,3.45,1.72,2.46,1.73,3.28,5.18,2.37,8-.43,1.33-1.39,2.15-2.55,2.8-.38.21-.77.42-1.09.71-1.27,1.15-2.7,1.76-4.42,1.43Z"/>
      <path class="cls-1" d="m138.26,109.07c0,.56,0,1.12,0,1.67.03,2.12,1.1,3.77,2.43,5.3,1.14,1.3,1.02,1.66-.27,2.75-1.07.91-2.17.71-3.32.5-1.47-.27-2.89-.14-4.31.26-.8.23-1.57.57-2.43.58-.36,0-.66-.03-.95-.24-.95-.68-1.97-1.26-2.69-2.23-1.52-2.04-2.17-4.24-1.29-6.73.28-.81.91-1.39,1.4-2.07,1.85-2.55,4.49-3.4,7.49-3.31,1.07.03,2.14.3,3.19.61.7.2.95.63.9,1.31-.04.53-.06,1.06-.09,1.58h-.05Z"/>
      <path class="cls-1" d="m125.13,76.57c1.27.16,2.51.46,3.68.98.88.38,1.04.77.88,1.71-.12.73-.34,1.45-.35,2.2-.03,2.15.34,4.17,1.66,5.98,1.06,1.45.97,1.67-.3,3-.36.38-.77.71-1.2,1.03-.88.66-1.81.77-2.81.4-1.22-.45-2.49-.45-3.66-.05-1.39.47-2.46.12-3.34-.91-.76-.89-1.44-1.86-2.08-2.84-.48-.73-.7-1.56-.61-2.48.07-.77.01-1.55.01-2.33,0-.15-.02-.33.04-.46,1.18-2.66,2.71-4.96,5.79-5.7.75-.18,1.46-.56,2.27-.52Z"/>
      <path class="cls-1" d="m117.01,100.41c-.24-4.49,4.78-8.02,8.83-7.32,1.44.25,2.65.82,3.84,1.54.67.41.99,1,.96,1.79-.07,1.68.6,3.13,1.47,4.49.31.49.32.94.23,1.47-.24,1.41-.92,2.3-2.41,2.65-1.16.28-2.25.84-3.1,1.77-.62.68-1.37.97-2.37,1.01-2.55.09-4.25-1.28-5.79-3.01-.29-.32-.5-.71-.75-1.07-.72-1.03-1.03-2.17-.92-3.33Z"/>
      <path class="cls-1" d="m116.66,49.47c1.78.02,1.73.02,1.85,1.76.11,1.52.92,2.74,2.02,3.76.29.27.65.48.97.72.5.39.68.84.39,1.46-.3.62-.41,1.3-.43,1.99,0,.27-.07.59.25.74.32.15.61,0,.86-.2.38-.32.75-.66,1.12-.98.19-.16.38-.33.58-.46.31-.2.62-.51,1.01-.31.42.22.4.67.38,1.08-.06,1.19-.81,2.12-1.96,2.41-.67.17-1.3.43-1.83.89-.98.84-2.19,1.43-2.85,2.64-.22.4-.64.48-1.07.27-1.07-.53-2.25-.71-3.36-1.12-.69-.25-1.41-.26-2.12-.23-.71.03-1.26-.23-1.76-.69-1.08-1.01-1.7-2.28-2.15-3.66-.14-.44-.22-.89-.45-1.31-.3-.55.01-1.18.15-1.71.47-1.81,1.18-3.51,2.63-4.84,1.65-1.51,3.56-2.18,5.75-2.22Z"/>
      <path class="cls-1" d="m192.85,46.51c-1.78-.17-3.35.46-4.85,1.3-.89.5-.99.46-1.77-.19-1.61-1.34-3.35-2.46-5.55-2.45-.52,0-.69-.28-.87-.67-.68-1.51-.57-2.98.03-4.51.94-2.41,2.55-4,5.09-4.56,1.94-.43,3.94-.55,5.8.12,2.33.84,4.05,2.43,4.91,4.88.64,1.82.58,3.49-.3,5.2-.34.66-.75.94-1.46.88-.34-.03-.68,0-1.03,0Z"/>
      <path class="cls-1" d="m144.81,93.03c-.36,2.17.73,3.93,1.62,5.73.6,1.21.4,1.89-.91,2.23-1.54.4-2.9,1.08-4.12,2.07-.72.59-1.55.75-2.45.48-.12-.03-.25-.07-.37-.06-2.03.09-3.44-1.07-4.63-2.46-2.74-3.19-2.27-6.69.12-9.56,1.2-1.45,2.96-2.16,4.88-2.39,1.63-.19,3.19-.1,4.7.6.9.41,1.38,1.02,1.23,2.04-.06.43-.05.87-.07,1.3Z"/>
      <path class="cls-1" d="m163.65,126.51c-2.52-.08-4.42-.71-5.89-2.21-2.9-2.97-2.53-8.08,1.43-10.36,3.2-1.84,7.39-1.38,9.83,1.4,1.2,1.37,1.75,3.02,1.79,4.79.02.81-.31,1.67-.74,2.38-.87,1.42-1.98,2.62-3.6,3.23-1.05.4-2.06.91-2.81.77Z"/>
      <path class="cls-1" d="m148.02,130.89c-1.27-.19-3.17-.88-4.67-2.63-1.03-1.21-1.46-2.6-1.61-4.04-.15-1.42.47-2.76,1.27-3.97,1.4-2.1,3.53-2.81,5.87-3.12,1.59-.21,3,.34,4.34,1.11.56.32.94.73,1.02,1.44.2,1.88.9,3.6,1.99,5.15.37.53.41,1.02.12,1.56-1.38,2.53-4.26,4.78-8.33,4.51Z"/>
      <path class="cls-1" d="m171.08,106.41c-.14,2.01-1.4,3.98-3.72,5.27-.25.14-.52.3-.8.18-1.46-.65-3-.32-4.51-.37-.47-.02-.94-.01-1.4.04-.93.11-1.63-.26-2.23-.93-1.23-1.38-2.3-2.92-2.17-4.81.28-3.84,1.86-5.61,5.37-6.69,3.24-.99,6.49.42,8.3,2.98.74,1.05,1.14,2.28,1.15,4.32Z"/>
      <path class="cls-1" d="m192.63,48c4.29-.33,7.85,4.49,6.35,9.09-.75,2.31-2.06,4.11-4.65,4.61-.51.1-.95.47-1.49.49-.84.03-1.59-.16-2.41-.44-1.71-.6-2.69-1.86-3.54-3.26-2.66-4.4.25-9.56,4.25-10.41.49-.1.99-.07,1.49-.08Z"/>
      <path class="cls-1" d="m135.43,134.06c-1.57.33-2.83-.53-4.13-1.12-1.11-.51-1.7-1.62-2.29-2.63-2.31-3.93.29-8.06,3.64-9.37,2.21-.86,4.25-.61,6.33.21,1,.39,1.75,1.56,1.52,2.58-.33,1.46.31,2.66.83,3.9.27.65.71,1.23.95,1.9.23.64.06,1.11-.49,1.42-.98.55-1.85,1.24-2.67,2-1.03.95-2.28,1.36-3.69,1.11Z"/>
      <path class="cls-1" d="m183.06,75.16c.11.93-.59,2.2-1.45,3.39-.91,1.25-2.17,2.11-3.66,2.44-3.56.81-6.18-.77-7.59-3.94-.46-1.02-.76-2.1-.67-3.26.06-.71.29-1.25.94-1.6.99-.53,1.91-1.15,2.71-1.95.73-.73,1.47-1.42,2-2.32.55-.93,1.01-1.07,2.04-.77.74.22,1.5.4,2.19.79,2.55,1.46,3.43,3.79,3.49,7.21Z"/>
      <path class="cls-1" d="m159.84,140.09c-2.82-.11-4.81-1.58-5.9-4.06-.91-2.06-.54-4.13,1.01-5.85,2.77-3.08,7.67-3.23,10.33-.07,2.29,2.72,2.32,5.94-.84,8.44-1.33,1.05-2.86,1.61-4.6,1.54Z"/>
      <path class="cls-1" d="m174.27,50.42c.13,1.52-.55,2.96-1.81,4.16-.5.48-1.04.64-1.69.31-2.33-1.18-4.81-1.61-7.42-1.47-1.42.08-2.13-.67-2.11-2.11,0-.09.02-.19,0-.27-.65-2.29.06-4.29,1.46-6.05,1.67-2.1,4.53-2.72,6.9-1.9,3.11,1.08,4.8,3.97,4.67,7.32Z"/>
      <path class="cls-1" d="m181,60.71c-3.13-.02-5.26-1.47-6.36-4.21-.34-.85-.35-1.68.03-2.53.63-1.43,1.17-2.88,1.24-4.47.04-.79.57-1.32,1.19-1.69,2.73-1.65,5.37-1.57,7.87.37.27.21.55.44.72.72.28.46.38.92.12,1.49-.76,1.64-1.32,3.35-1.31,5.19,0,.77.33,1.45.49,2.17.27,1.19.1,1.6-.95,2.24-1,.6-2.08.8-3.05.71Z"/>
      <path class="cls-1" d="m148.97,155.05c-3.39.21-5.89-2.31-6.51-5.51-.1-.51,0-1.03.15-1.56.67-2.43,2.34-3.79,4.66-4.49,1.19-.36,2.37-.35,3.56.12,1.14.45,2.21.96,3.08,1.86,1.8,1.86,1.93,5.15.27,7.14-1.34,1.62-3,2.54-5.2,2.43Z"/>
      <path class="cls-1" d="m138.44,138.35c-.12-2.87,1.18-4.58,3.25-5.73,1.12-.62,2.45-.68,3.73-.54,3.77.4,6.89,4.11,5.62,8.04-.29.9-.75,1.44-1.81,1.56-1.93.21-3.79.72-5.37,1.95-.55.43-1.14.41-1.75.13-.8-.36-1.4-1-2.09-1.51-1.44-1.08-1.63-2.62-1.58-3.9Z"/>
      <path class="cls-1" d="m152.73,60.88c-.48.01-.84-.25-1.13-.65-.89-1.25-1.96-2.33-3.16-3.27-.46-.36-.7-.77-.55-1.37.16-.64.11-1.3.14-1.95.04-.74.23-.92.97-.96.31-.02.62,0,.93,0,.71-.02.85-.18.81-.91-.03-.55-.28-1.17.07-1.63.39-.51,1.05-.18,1.59-.26.84-.13,1.66-.63,1.73-1.21.09-.81-.33-1.42-.93-1.92-.21-.18-.47-.3-.68-.47-.13-.11-.32-.23-.22-.45.07-.16.24-.19.4-.19.5,0,.87-.25,1.23-.57.85-.76,1.55-.83,2.38,0,.93.94,1.95,1.79,2.81,2.81.4.48.52,1.05.52,1.65,0,1.37.05,2.73.65,4,.19.4-.06.64-.36.85-.7.51-1.5.87-2.18,1.42-1.43,1.13-2.73,2.34-3.46,4.07-.31.74-.85,1.04-1.56,1.03Z"/>
      <path class="cls-1" d="m146.39,54c.07,1.8-.03,1.93-1.6,1.62-2.71-.52-5.2.1-7.51,1.46-1.33.78-2.33,1.95-3.21,3.2-.14.2-.25.43-.4.63-.57.79-.84.83-1.55.15-.81-.77-1.64-1.53-2.1-2.59-.51-1.16-.42-1.6.6-2.38.61-.47.86-1.13,1.1-1.8.15-.41.26-.83.43-1.23.28-.67.75-1.1,1.51-1.23,1.5-.25,2.28-1.29,2.76-2.62.04-.12.04-.25.08-.36.27-.77.58-.82,1.18-.21.55.55,1.08,1.12,1.65,1.65.86.79,1.85,1.33,2.97,1.69.64.2.85-.07,1-.58.04-.15.05-.31.07-.46.04-.35.11-.74.48-.84.35-.1.51.28.7.51.06.07.12.15.2.2,1.25.8,1.77,1.96,1.65,3.18Z"/>
      <path class="cls-1" d="m185.21,29.69c2.78-.07,5.11,1.11,6.83,3.5.2.27.5.57.17.89-.27.27-.63.36-1.02.15-1.54-.82-3.21-.61-4.84-.56-1.77.05-3.25.97-4.67,1.92-1.57,1.06-2.61,2.54-3.31,4.27-.12.29-.16.63-.57.63-.39,0-.54-.36-.62-.61-.35-1.13-.62-2.28-.47-3.48.24-1.83,1.23-3.27,2.49-4.54,1.6-1.63,3.61-2.2,6.01-2.17Z"/>
      <path class="cls-1" d="m187.48,64.09c.06,2.32-.91,4.24-2.77,5.73-.7.56-1.05.55-1.52-.2-1.34-2.14-3.25-3.36-5.74-3.74-.94-.14-1.26-.69-.98-1.6.2-.67.01-1.29-.13-1.93-.18-.81.05-1.03.87-.87.24.05.47.16.7.24,2.26.86,4.49.76,6.56-.5,1.88-1.15,2.51-.35,2.85,1.3.1.49.2.97.16,1.56Z"/>
      <path class="cls-1" d="m176.89,43.56c.05.88-.19,1.68-.51,2.46-.35.84-1.04.92-1.54.17-.63-.95-1.17-1.94-2.05-2.72-1.57-1.4-3.43-2.01-5.47-2.17-.6-.05-1.22.16-1.83.25-.65.09-.75,0-.78-.67-.04-1.22.8-1.97,1.55-2.73,1.06-1.09,2.56-1.29,3.91-1.77.05-.02.12,0,.18.03,1.42.48,3,.56,4.17,1.67.07.06.19.08.23.15.88,1.71,2.03,3.32,2.13,5.33Z"/>
      <path class="cls-1" d="m157.16,41.09c.01-2.42,1.39-4.98,4.05-5.99,1.56-.59,3.05-.72,4.54.09.76.41.82.8.21,1.45-.36.38-.73.76-1.11,1.13-.93.9-1.41,2.01-1.7,3.25-.24,1.03-.54,2.02-1.31,2.83-.53.56-.9,1.27-1.39,1.87-.56.68-.81.67-1.44.09-1.37-1.28-1.77-2.94-1.87-4.72Z"/>
      <path class="cls-1" d="m90.74,42.21c.11-1.06-.14-2.16.61-3.06.53-.64,1.03-1.33,1.62-1.92,1.39-1.38,3.15-1.51,4.96-1.29.77.1,1.57.23,2.25.7.79.54.82.92-.03,1.41-.99.58-1.97,1.16-2.83,1.94-1.5,1.37-2.39,3.06-2.77,5.04-.12.64-.23,1.28-.21,1.94.01.35-.07.68-.47.82-.4.14-.54-.19-.76-.39-.87-.78-1.44-1.79-2.04-2.76-.45-.73-.23-1.64-.33-2.44Z"/>
      <path class="cls-1" d="m116.93,48c-.34,0-.69,0-1.03,0-.86-.02-1.11-.25-1.15-1.12-.04-.93-.17-1.83-.48-2.74-.53-1.51-1.36-2.78-2.46-3.91-.17-.18-.33-.38-.47-.58-.24-.36-.29-.61.29-.63,1.26-.04,2.52.09,3.68.51,2.3.84,4.38.46,6.39-.81.81-.51,1.64-.98,2.62-1.1.24-.03.54-.15.68.11.16.31-.1.52-.32.7-.83.66-1.72,1.22-2.52,1.92-.96.83-1.69,1.82-2.28,2.93-.26.49-.5,1.01-.81,1.47-.42.62-.51,1.21-.28,1.94.3.98,0,1.31-1.03,1.31-.28,0-.56,0-.84,0,0,0,0,0,0,0Z"/>
    </g>
  </g>
</svg>